<?xml version="1.0" encoding="UTF-8" standalone="no"?>
<!DOCTYPE svg PUBLIC "-//W3C//DTD SVG 1.1//EN" "http://www.w3.org/Graphics/SVG/1.1/DTD/svg11.dtd">
<svg width="100%" height="100%" viewBox="0 0 290 284" version="1.1" xmlns="http://www.w3.org/2000/svg" xmlns:xlink="http://www.w3.org/1999/xlink" xml:space="preserve" xmlns:serif="http://www.serif.com/" style="fill-rule:evenodd;clip-rule:evenodd;stroke-linejoin:round;stroke-miterlimit:2;">
    <g transform="matrix(4.16667,0,0,4.16667,-1748.42,-2661.8)">
        <path d="M468.327,650.938C464.026,648.044 458.848,646.48 453.667,646.494L453.667,648.153C458.527,648.143 463.372,649.605 467.403,652.318C471.446,655.013 474.663,658.927 476.517,663.415C478.384,667.896 478.868,672.941 477.921,677.705C476.988,682.471 474.591,686.933 471.151,690.362C467.721,693.804 463.259,696.2 458.493,697.133C453.729,698.08 448.685,697.596 444.203,695.729C439.715,693.875 435.802,690.657 433.106,686.615C430.931,683.381 429.575,679.62 429.123,675.752C430.311,675.332 431.168,674.211 431.168,672.879C431.168,671.191 429.8,669.823 428.111,669.823C426.423,669.823 425.055,671.191 425.055,672.879C425.055,674.346 426.088,675.568 427.466,675.865C427.938,680.021 429.391,684.067 431.727,687.539C434.603,691.852 438.775,695.282 443.567,697.262C448.356,699.256 453.731,699.771 458.815,698.762C463.904,697.766 468.667,695.206 472.325,691.537C475.994,687.879 478.554,683.116 479.55,678.027C480.56,672.944 480.044,667.568 478.05,662.778C476.07,657.986 472.64,653.814 468.327,650.938Z" style="fill:rgb(65,64,66);fill-rule:nonzero;"/>
    </g>
    <g transform="matrix(4.16667,0,0,4.16667,-1748.42,-2661.8)">
        <path d="M487.623,670.324C487.188,664.508 485.238,658.804 481.979,653.962C478.269,648.397 472.883,643.97 466.699,641.417C460.521,638.844 453.583,638.178 447.024,639.481C440.458,640.766 434.312,644.067 429.592,648.803C424.856,653.523 421.555,659.669 420.27,666.236C418.966,672.794 419.632,679.733 422.205,685.911C424.759,692.096 429.186,697.48 434.749,701.19C440.3,704.926 446.981,706.944 453.667,706.927L453.667,705.268C447.302,705.281 440.954,703.363 435.673,699.812C430.38,696.281 426.166,691.155 423.738,685.275C421.291,679.404 420.657,672.797 421.898,666.558C423.12,660.314 426.26,654.47 430.766,649.977C435.259,645.471 441.103,642.331 447.347,641.109C453.585,639.869 460.192,640.502 466.063,642.949C471.943,645.378 477.069,649.591 480.599,654.885C483.584,659.319 485.396,664.509 485.898,669.828C484.234,669.856 482.893,671.21 482.893,672.879C482.893,674.567 484.262,675.937 485.951,675.937C487.639,675.937 489.006,674.567 489.006,672.879C489.006,671.81 488.455,670.871 487.623,670.324Z" style="fill:rgb(65,64,66);fill-rule:nonzero;"/>
    </g>
    <g transform="matrix(4.16667,0,0,4.16667,-1748.42,-2661.8)">
        <path d="M441.521,664.518L441.521,661.008L469.01,661.008L469.01,682.87L467.583,682.87L467.583,668.592L447.837,668.592L447.837,664.518L441.521,664.518ZM467.583,684.529L470.671,684.529L470.671,659.349L439.861,659.349L439.861,664.518L437.494,664.518L437.494,685.58L467.583,685.58L467.583,684.529Z" style="fill:rgb(65,64,66);fill-rule:nonzero;"/>
    </g>
    <g transform="matrix(4.16667,0,0,4.16667,-1748.42,-2661.8)">
        <rect x="448.466" y="665.771" width="7.012" height="2.2" style="fill:rgb(65,64,66);fill-rule:nonzero;"/>
    </g>
</svg>
