<?xml version="1.0" encoding="UTF-8" standalone="no"?>
<!DOCTYPE svg PUBLIC "-//W3C//DTD SVG 1.1//EN" "http://www.w3.org/Graphics/SVG/1.1/DTD/svg11.dtd">
<svg width="100%" height="100%" viewBox="0 0 206 258" version="1.1" xmlns="http://www.w3.org/2000/svg" xmlns:xlink="http://www.w3.org/1999/xlink" xml:space="preserve" xmlns:serif="http://www.serif.com/" style="fill-rule:evenodd;clip-rule:evenodd;stroke-linejoin:round;stroke-miterlimit:2;">
    <g transform="matrix(3.78742,1.73683,-1.73683,3.78742,552.421,-3560.46)">
        <path d="M287.971,844.185C287.971,833.357 279.192,824.569 268.355,824.569C257.519,824.569 248.74,833.357 248.74,844.185C248.74,855.022 257.519,863.8 268.355,863.8C279.192,863.8 287.971,855.022 287.971,844.185ZM292.996,844.129C292.996,855.864 284.789,865.662 273.812,868.151L273.812,879.082C273.812,882.096 271.369,884.538 268.355,884.538C265.342,884.538 262.899,882.096 262.899,879.082L262.899,868.151C251.913,865.662 243.715,855.864 243.715,844.129C243.715,830.521 254.749,819.488 268.355,819.488C281.963,819.488 292.996,830.521 292.996,844.129Z" style="fill:rgb(65,64,66);fill-rule:nonzero;"/>
    </g>
    <g transform="matrix(4.16667,0,0,4.16667,-1019.15,-3417.5)">
        <path d="M277.255,844.784L279.024,844.784L279.024,831.504L280.681,831.504L280.681,844.784L282.065,844.784L282.065,846.44L266.812,846.44L266.812,859.458L265.155,859.458L265.155,846.44L263.386,846.44L263.386,850.914L261.73,850.914L261.73,846.44L260.055,846.44L260.055,848.266L258.389,848.266L258.389,846.44L256.629,846.44L256.629,849.52L254.964,849.52L254.964,846.44L253.541,846.44L253.541,844.784L268.833,844.784L268.833,841.752L270.489,841.752L270.489,844.784L272.258,844.784L272.258,837.971L273.924,837.971L273.924,844.784L275.599,844.784L275.599,834.556L277.255,834.556L277.255,844.784Z" style="fill:rgb(65,64,66);fill-rule:nonzero;"/>
    </g>
</svg>
