<?xml version="1.0" encoding="UTF-8" standalone="no"?>
<!DOCTYPE svg PUBLIC "-//W3C//DTD SVG 1.1//EN" "http://www.w3.org/Graphics/SVG/1.1/DTD/svg11.dtd">
<svg width="100%" height="100%" viewBox="0 0 250 250" version="1.1" xmlns="http://www.w3.org/2000/svg" xmlns:xlink="http://www.w3.org/1999/xlink" xml:space="preserve" xmlns:serif="http://www.serif.com/" style="fill-rule:evenodd;clip-rule:evenodd;stroke-linejoin:round;stroke-miterlimit:2;">
    <g transform="matrix(4.16667,0,0,4.16667,-228.442,-439.383)">
        <path d="M113.871,117.259L102.895,117.259L102.895,106.282L113.871,106.282L113.871,117.259ZM113.871,129.064L107.216,129.064L104.959,127.44L104.656,129.064L102.895,129.064L102.895,118.088L113.871,118.088L113.871,129.064ZM113.871,140.885L102.895,140.885L102.895,132.528C103.266,132.531 103.637,132.532 104.009,132.544L103.418,135.717L112.988,133.218L108.369,129.894L113.871,129.894L113.871,140.885ZM113.871,152.69L103.26,152.69C103.208,152.307 103.148,151.941 103.081,151.57L102.895,151.605L102.895,141.714L113.871,141.714L113.871,152.69ZM113.871,164.497L102.895,164.497L102.895,153.521L113.871,153.521L113.871,164.497ZM102.064,117.259L91.088,117.259L91.088,106.282L102.064,106.282L102.064,117.259ZM102.064,129.064L91.088,129.064L91.088,129.012L91.37,128.759C91.279,128.658 91.18,128.563 91.088,128.462L91.088,118.088L102.064,118.088L102.064,129.064ZM102.064,130.87C100.075,130.896 98.085,131.054 96.117,131.367C95.366,131.485 94.621,131.633 93.877,131.795C93.662,131.515 93.458,131.226 93.235,130.95L91.942,131.991C92.002,132.066 92.057,132.146 92.118,132.223C91.774,132.315 91.43,132.41 91.088,132.511L91.088,129.894L102.064,129.894L102.064,130.87ZM102.064,140.885L99.487,140.885C99.452,140.811 99.422,140.735 99.386,140.661L98.922,140.885L91.088,140.885L91.088,134.248C91.788,134.03 92.493,133.829 93.204,133.653C93.342,133.84 93.49,134.019 93.626,134.208L94.946,133.262C95.421,133.168 95.899,133.082 96.377,133.006C98.257,132.708 100.159,132.556 102.064,132.531L102.064,140.885ZM102.064,147.557C101.906,147.033 101.76,146.504 101.582,145.987L100.012,146.526C100.312,147.403 100.585,148.288 100.827,149.18L102.064,148.845L102.064,151.76L101.449,151.875C101.499,152.145 101.545,152.42 101.585,152.69L91.088,152.69L91.088,141.714L98.041,141.714C98.385,142.444 98.721,143.178 99.029,143.923L100.564,143.29C100.344,142.758 100.097,142.238 99.858,141.714L102.064,141.714L102.064,147.557ZM102.064,164.497L91.088,164.497L91.088,153.521L102.064,153.521L102.064,164.497ZM90.258,117.259L79.267,117.259L79.267,106.282L90.258,106.282L90.258,117.259ZM90.258,127.589C89.966,127.285 89.685,126.97 89.387,126.673L88.215,127.849C88.612,128.244 88.988,128.658 89.371,129.064L79.267,129.064L79.267,118.088L90.258,118.088L90.258,127.589ZM90.258,132.766C88.157,133.441 86.11,134.29 84.154,135.31C82.454,136.193 80.825,137.205 79.267,138.315L79.267,129.894L90.258,129.894L90.258,132.766ZM90.258,140.885L79.267,140.885L79.267,140.376C81.05,139.025 82.937,137.813 84.92,136.783C86.637,135.887 88.424,135.131 90.258,134.514L90.258,140.885ZM90.258,152.69L79.267,152.69L79.267,141.714L90.258,141.714L90.258,152.69ZM90.258,164.497L79.267,164.497L79.267,153.521L90.258,153.521L90.258,164.497ZM78.438,117.259L76.793,117.259C76.365,117.019 75.942,116.77 75.507,116.54L75.127,117.259L69.234,117.259L69.804,115.655C70.62,116.008 71.429,116.372 72.233,116.751L72.947,115.252C72.091,114.848 71.23,114.46 70.362,114.086L71.481,110.938L67.461,111.333L67.461,106.282L78.438,106.282L78.438,117.259ZM78.438,129.064L67.461,129.064L67.461,118.088L67.87,118.088L68.66,118.872L68.939,118.088L74.877,118.088C75.65,118.501 76.417,118.927 77.171,119.372L77.927,118.088L78.438,118.088L78.438,129.064ZM78.438,138.921C77.604,139.547 76.793,140.202 76.007,140.885L67.461,140.885L67.461,129.894L78.438,129.894L78.438,138.921ZM78.438,152.69L68.244,152.69C70.101,149.512 72.505,146.536 75.157,143.92C75.938,143.154 76.752,142.42 77.588,141.714L78.438,141.714L78.438,152.69ZM78.438,164.497L67.461,164.497L67.461,153.521L78.438,153.521L78.438,164.497ZM66.632,111.415L61.636,111.906L66.632,116.86L66.632,117.259L55.656,117.259L55.656,106.282L66.632,106.282L66.632,111.415ZM66.632,129.064L55.656,129.064L55.656,118.088L66.632,118.088L66.632,129.064ZM66.632,140.885L55.656,140.885L55.656,129.894L66.632,129.894L66.632,140.885ZM66.632,152.193C66.535,152.362 66.425,152.52 66.331,152.69L55.656,152.69L55.656,141.714L66.632,141.714L66.632,152.193ZM66.632,164.497L55.656,164.497L55.656,153.521L66.632,153.521L66.632,164.497ZM67.461,141.714L75.072,141.714C74.708,142.05 74.348,142.389 73.995,142.735C71.525,145.184 69.325,147.854 67.461,150.82L67.461,141.714ZM102.895,129.894L104.502,129.894L104.315,130.897C103.842,130.879 103.368,130.871 102.895,130.868L102.895,129.894ZM54.826,105.452L54.826,165.327L114.7,165.327L114.7,105.452L54.826,105.452Z" style="fill:rgb(65,64,66);fill-rule:nonzero;"/>
    </g>
    <g transform="matrix(4.16667,0,0,4.16667,-228.442,-439.383)">
        <path d="M96.607,138.912L98.058,138.104C97.59,137.265 97.1,136.439 96.585,135.629L95.184,136.518C95.681,137.302 96.156,138.1 96.607,138.912Z" style="fill:rgb(65,64,66);fill-rule:nonzero;"/>
    </g>
    <g transform="matrix(4.16667,0,0,4.16667,-228.442,-439.383)">
        <path d="M87.294,124.696C86.581,124.057 85.849,123.436 85.102,122.833L84.06,124.126C84.785,124.71 85.495,125.313 86.187,125.934L87.294,124.696Z" style="fill:rgb(65,64,66);fill-rule:nonzero;"/>
    </g>
    <g transform="matrix(4.16667,0,0,4.16667,-228.442,-439.383)">
        <path d="M82.821,121.087C82.045,120.525 81.256,119.981 80.455,119.457L79.545,120.846C80.325,121.355 81.091,121.884 81.844,122.431L82.821,121.087Z" style="fill:rgb(65,64,66);fill-rule:nonzero;"/>
    </g>
    <g transform="matrix(4.16667,0,0,4.16667,-228.442,-439.383)">
        <rect x="103.903" y="157.349" width="2.163" height="1.229" style="fill:rgb(65,64,66);fill-rule:nonzero;"/>
    </g>
    <g transform="matrix(4.16667,0,0,4.16667,-228.442,-439.383)">
        <rect x="107.039" y="157.349" width="2.163" height="1.229" style="fill:rgb(65,64,66);fill-rule:nonzero;"/>
    </g>
    <g transform="matrix(4.16667,0,0,4.16667,-228.442,-439.383)">
        <rect x="110.34" y="157.349" width="2.163" height="1.229" style="fill:rgb(65,64,66);fill-rule:nonzero;"/>
    </g>
    <g transform="matrix(4.16667,0,0,4.16667,-228.442,-439.383)">
        <rect x="103.903" y="160.581" width="8.6" height="1.229" style="fill:rgb(65,64,66);fill-rule:nonzero;"/>
    </g>
</svg>
