<svg width="1772" height="1188" viewBox="0 0 1772 1188" fill="none" xmlns="http://www.w3.org/2000/svg">
<rect opacity="0.5" x="869.075" y="375.898" width="728" height="728" rx="20" transform="rotate(-16.2588 869.075 375.898)" fill="#D5E2E8"/>
<rect opacity="0.5" x="390.097" y="183" width="728" height="728" rx="20" transform="rotate(32.4014 390.097 183)" fill="#BAE8FF"/>
<rect opacity="0.5" x="654.073" width="728" height="728" rx="20" transform="rotate(12.6213 654.073 0)" fill="white"/>
<g opacity="0.2">
<rect x="485.269" y="508.222" width="36.4484" height="36.4484" rx="5" transform="rotate(-15 485.269 508.222)" fill="#20ABF9"/>
<rect x="459.933" y="413.667" width="36.4484" height="36.4484" rx="5" transform="rotate(-15 459.933 413.667)" fill="#20ABF9"/>
<rect x="507.211" y="400.999" width="36.4484" height="36.4484" rx="5" transform="rotate(-15 507.211 400.999)" fill="#20ABF9"/>
<rect x="519.878" y="448.277" width="36.4484" height="36.4484" rx="5" transform="rotate(-15 519.878 448.277)" fill="#20ABF9"/>
<rect x="532.546" y="495.554" width="36.4484" height="36.4484" rx="5" transform="rotate(-15 532.546 495.554)" fill="#20ABF9"/>
<rect x="510.605" y="602.776" width="36.4484" height="36.4484" rx="5" transform="rotate(-15 510.605 602.776)" fill="#20ABF9"/>
<rect opacity="0.5" x="462.69" y="615.112" width="36.4484" height="36.4484" rx="5" transform="rotate(-15 462.69 615.112)" fill="#20ABF9"/>
<rect opacity="0.5" x="523.273" y="650.054" width="36.4484" height="36.4484" rx="5" transform="rotate(-15 523.273 650.054)" fill="#20ABF9"/>
<rect x="481.501" y="306.545" width="36.4484" height="36.4484" rx="5" transform="rotate(-15 481.501 306.545)" fill="#20ABF9"/>
<rect x="494.169" y="353.822" width="36.4484" height="36.4484" rx="5" transform="rotate(-15 494.169 353.822)" fill="#20ABF9"/>
<rect x="545.214" y="542.831" width="36.4484" height="36.4484" rx="5" transform="rotate(-15 545.214 542.831)" fill="#20ABF9"/>
<rect x="554.488" y="388.331" width="36.4484" height="36.4484" rx="5" transform="rotate(-15 554.488 388.331)" fill="#20ABF9"/>
<rect x="567.156" y="435.609" width="36.4484" height="36.4484" rx="5" transform="rotate(-15 567.156 435.609)" fill="#20ABF9"/>
<rect x="579.824" y="482.886" width="36.4484" height="36.4484" rx="5" transform="rotate(-15 579.824 482.886)" fill="#20ABF9"/>
<rect x="592.492" y="530.163" width="36.4484" height="36.4484" rx="5" transform="rotate(-15 592.492 530.163)" fill="#20ABF9"/>
<rect x="605.159" y="577.44" width="36.4484" height="36.4484" rx="5" transform="rotate(-15 605.159 577.44)" fill="#20ABF9"/>
<rect x="617.827" y="624.718" width="36.4484" height="36.4484" rx="5" transform="rotate(-15 617.827 624.718)" fill="#20ABF9"/>
<rect x="541.82" y="341.054" width="36.4484" height="36.4484" rx="5" transform="rotate(-15 541.82 341.054)" fill="#20ABF9"/>
<rect x="601.765" y="375.664" width="36.4484" height="36.4484" rx="5" transform="rotate(-15 601.765 375.664)" fill="#20ABF9"/>
<rect x="614.433" y="422.941" width="36.4484" height="36.4484" rx="5" transform="rotate(-15 614.433 422.941)" fill="#20ABF9"/>
<rect x="627.101" y="470.218" width="36.4484" height="36.4484" rx="5" transform="rotate(-15 627.101 470.218)" fill="#20ABF9"/>
<rect x="639.769" y="517.495" width="36.4484" height="36.4484" rx="5" transform="rotate(-15 639.769 517.495)" fill="#20ABF9"/>
<rect x="589.097" y="328.386" width="36.4484" height="36.4484" rx="5" transform="rotate(-15 589.097 328.386)" fill="#20ABF9"/>
<rect x="649.042" y="362.996" width="36.4484" height="36.4484" rx="5" transform="rotate(-15 649.042 362.996)" fill="#20ABF9"/>
<rect x="661.71" y="410.273" width="36.4484" height="36.4484" rx="5" transform="rotate(-15 661.71 410.273)" fill="#20ABF9"/>
<rect x="674.378" y="457.55" width="36.4484" height="36.4484" rx="5" transform="rotate(-15 674.378 457.55)" fill="#20ABF9"/>
<rect x="687.046" y="504.828" width="36.4484" height="36.4484" rx="5" transform="rotate(-15 687.046 504.828)" fill="#20ABF9"/>
<rect x="699.714" y="552.105" width="36.4484" height="36.4484" rx="5" transform="rotate(-15 699.714 552.105)" fill="#20ABF9"/>
<rect x="712.382" y="599.382" width="36.4484" height="36.4484" rx="5" transform="rotate(-15 712.382 599.382)" fill="#20ABF9"/>
<rect x="696.32" y="350.328" width="36.4484" height="36.4484" rx="5" transform="rotate(-15 696.32 350.328)" fill="#20ABF9"/>
<rect x="708.988" y="397.605" width="36.4484" height="36.4484" rx="5" transform="rotate(-15 708.988 397.605)" fill="#20ABF9"/>
<rect x="721.656" y="444.882" width="36.4484" height="36.4484" rx="5" transform="rotate(-15 721.656 444.882)" fill="#20ABF9"/>
<rect x="734.323" y="492.16" width="36.4484" height="36.4484" rx="5" transform="rotate(-15 734.323 492.16)" fill="#20ABF9"/>
<rect x="746.991" y="539.437" width="36.4484" height="36.4484" rx="5" transform="rotate(-15 746.991 539.437)" fill="#20ABF9"/>
<rect x="683.652" y="303.05" width="36.4484" height="36.4484" rx="5" transform="rotate(-15 683.652 303.05)" fill="#20ABF9"/>
<rect x="743.597" y="337.66" width="36.4484" height="36.4484" rx="5" transform="rotate(-15 743.597 337.66)" fill="#20ABF9"/>
<rect x="756.265" y="384.937" width="36.4484" height="36.4484" rx="5" transform="rotate(-15 756.265 384.937)" fill="#20ABF9"/>
<rect x="768.933" y="432.214" width="36.4484" height="36.4484" rx="5" transform="rotate(-15 768.933 432.214)" fill="#20ABF9"/>
<rect x="781.601" y="479.492" width="36.4484" height="36.4484" rx="5" transform="rotate(-15 781.601 479.492)" fill="#20ABF9"/>
<rect x="806.937" y="574.046" width="36.4484" height="36.4484" rx="5" transform="rotate(-15 806.937 574.046)" fill="#20ABF9"/>
<rect opacity="0.5" x="819.604" y="621.323" width="36.4484" height="36.4484" rx="5" transform="rotate(-15 819.604 621.323)" fill="#20ABF9"/>
<rect x="790.874" y="324.992" width="36.4484" height="36.4484" rx="5" transform="rotate(-15 790.874 324.992)" fill="#20ABF9"/>
<rect x="803.542" y="372.269" width="36.4484" height="36.4484" rx="5" transform="rotate(-15 803.542 372.269)" fill="#20ABF9"/>
<rect x="816.21" y="419.546" width="36.4484" height="36.4484" rx="5" transform="rotate(-15 816.21 419.546)" fill="#20ABF9"/>
<rect x="828.878" y="466.824" width="36.4484" height="36.4484" rx="5" transform="rotate(-15 828.878 466.824)" fill="#20ABF9"/>
<rect x="841.546" y="514.101" width="36.4484" height="36.4484" rx="5" transform="rotate(-15 841.546 514.101)" fill="#20ABF9"/>
<rect x="854.214" y="561.378" width="36.4484" height="36.4484" rx="5" transform="rotate(-15 854.214 561.378)" fill="#20ABF9"/>
<rect opacity="0.5" x="778.206" y="277.715" width="36.4484" height="36.4484" rx="5" transform="rotate(-15 778.206 277.715)" fill="#20ABF9"/>
<rect x="825.484" y="265.047" width="36.4484" height="36.4484" rx="5" transform="rotate(-15 825.484 265.047)" fill="#20ABF9"/>
<rect x="850.82" y="359.601" width="36.4484" height="36.4484" rx="5" transform="rotate(-15 850.82 359.601)" fill="#20ABF9"/>
<rect x="876.155" y="454.156" width="36.4484" height="36.4484" rx="5" transform="rotate(-15 876.155 454.156)" fill="#20ABF9"/>
<rect x="888.823" y="501.433" width="36.4484" height="36.4484" rx="5" transform="rotate(-15 888.823 501.433)" fill="#20ABF9"/>
<rect opacity="0.5" x="885.429" y="299.656" width="36.4484" height="36.4484" rx="5" transform="rotate(-15 885.429 299.656)" fill="#20ABF9"/>
<rect x="923.433" y="441.488" width="36.4484" height="36.4484" rx="5" transform="rotate(-15 923.433 441.488)" fill="#20ABF9"/>
<rect x="945.374" y="334.265" width="36.4484" height="36.4484" rx="5" transform="rotate(-15 945.374 334.265)" fill="#20ABF9"/>
<rect x="996.046" y="523.375" width="36.4484" height="36.4484" rx="5" transform="rotate(-15 996.046 523.375)" fill="#20ABF9"/>
<rect opacity="0.5" x="920.038" y="239.711" width="36.4484" height="36.4484" rx="5" transform="rotate(-15 920.038 239.711)" fill="#20ABF9"/>
<rect x="430.599" y="542.138" width="36.4484" height="36.4484" rx="5" transform="rotate(75 430.599 542.138)" fill="#20ABF9"/>
<rect opacity="0.5" x="388.052" y="381.856" width="36.4484" height="36.4484" rx="5" transform="rotate(75 388.052 381.856)" fill="#20ABF9"/>
<rect x="400.484" y="429.745" width="36.4484" height="36.4484" rx="5" transform="rotate(75 400.484 429.745)" fill="#20ABF9"/>
<rect opacity="0.5" x="340.774" y="394.524" width="36.4484" height="36.4484" rx="5" transform="rotate(75 340.774 394.524)" fill="#20ABF9"/>
</g>
<rect x="460.204" y="457" width="39.7822" height="39.7822" rx="5" transform="rotate(90 460.204 457)" fill="#DFEAF9"/>
</svg>
